<svg xmlns="http://www.w3.org/2000/svg" fill="none" viewBox="0 0 1366 1366" height="1366" width="1366">
<g clip-path="url(#clip0_1_162)">
<path fill="#FDFDFD" d="M0 0H1365.33V1365.33H0V0ZM652.813 174.16C646.987 184.067 645.96 196.133 647.52 207.333C649.053 219.68 654.453 231.04 660.827 241.573C643.107 233.747 630.013 218.533 620.693 201.947C618.013 197.84 615.973 191.88 610.453 191.053C605.507 190.333 601.32 194.24 600.093 198.787C595.147 213.853 596.507 230.4 601.12 245.387C606.44 263.08 617.773 279.227 633.6 289C622.467 290.48 611.187 290.16 600.027 289.267C597.507 289.147 594.84 288.747 592.467 289.8C587.653 291.893 586.427 299.4 590.587 302.733C605.133 315.267 622.173 325 640.653 330.4C620.147 351.32 612.12 381.013 609.36 409.427C608.013 403.027 606.72 396.573 604.307 390.48C602.36 385.493 598.973 379.973 593.173 379.2C575.067 376.947 556.693 376.16 538.52 378.16C530.773 379.187 522.307 380.227 516.187 385.547C510.573 391.347 511.173 400.213 509.173 407.56C475.147 395.187 441.2 382.547 407.067 370.48C395.467 365.96 381.933 366.2 370.933 372.267C357.907 379.227 349.84 392.52 344.453 405.84C333 435.187 331.36 468.267 339.733 498.64C344.187 514.36 352.267 529.813 365.68 539.667C376.56 547.88 391.52 550.44 404.413 545.827C414.72 542.16 425.48 540 436.067 537.32C447.053 534.707 457.947 531.693 468.92 528.947C473.253 552.787 484.027 575.293 499.307 594.04C507.347 604.12 517.027 612.667 526.693 621.12C497.52 698.467 469.067 776.107 440.227 853.587C403.067 954.467 365.627 1055.25 328.493 1156.15C302.947 1156.21 277.4 1156.19 251.853 1156.16C249.76 1156.21 247.507 1156.27 245.68 1157.44C241.48 1160.16 241.68 1167.44 246.2 1169.77C249.667 1171.37 253.627 1170.77 257.333 1170.89C370.667 1170.67 483.987 1171.07 597.32 1171.01C620.413 1170.8 643.533 1171.49 666.6 1170.44C737.747 1170.43 808.88 1170.41 880.027 1170.51C958.267 1170.41 1036.52 1171.12 1114.77 1170.75C1120.07 1171.12 1123.83 1164.83 1121.29 1160.27C1119.92 1157.27 1116.52 1156.2 1113.47 1156.31C1075.97 1156.45 1038.47 1156.13 1000.97 1156.33C1004.07 1140.59 1005.92 1124.63 1007.6 1108.68C1011.93 1064.57 1012.92 1020.16 1011.08 975.88C1009.03 926.88 1004.39 877.973 996.52 829.56C987.613 776.8 975.72 724.387 957.733 673.933C946.72 644.867 921.6 619.827 890.227 614.6C887.147 590.707 885.133 566.693 882.32 542.773C903.373 537.827 920.307 523.32 934.24 507.453C951.187 488.333 966.16 466.973 974.627 442.693C980.347 425.92 985.253 408.48 985.147 390.613C985.187 379.773 980.947 369.533 980.387 358.773C980.053 347.787 984.893 337.627 989.373 327.907C992 322.733 988.733 316.04 983.427 314.213C978.493 312.573 973.147 313.507 968.28 314.893C959.853 317.427 951.773 321.08 944.267 325.68C950.747 306.16 953.093 285.013 949.72 264.653C948.28 257.893 946.813 250.867 943.08 244.947C939.88 239.987 931.293 240.853 929.053 246.267C925.573 254.013 922.773 262.067 918.987 269.667C916.427 267.067 914.867 263.68 912.347 261.053C904.093 252.4 892.32 248.693 881.173 245.387C876.747 243.867 871.24 243.973 868.187 239.907C858.16 227.667 848.347 215.24 838.2 203.093C836.373 200.867 833.613 199.04 830.613 199.787C826.347 200.253 823.267 205.147 824.92 209.147C826.84 213.307 830.24 216.52 833.12 220.013C838.12 226.04 843.027 232.147 848.12 238.107C823.813 233.173 799.173 230.24 774.653 226.653C757.907 224.133 740.933 221.48 725.28 214.653C705.013 205.84 686.72 192.56 671.853 176.2C669.627 173.933 667.64 171.307 664.827 169.747C660.427 167.88 655.04 169.987 652.813 174.16ZM949.92 173.893C946.867 175.693 946.387 179.493 945.627 182.627C943.64 192.907 940.613 202.973 938.693 213.253C936.88 219.747 945.387 224.96 950.64 221.32C953.907 218.813 953.987 214.253 954.987 210.6C956.827 200.773 959.787 191.187 961.493 181.347C962.573 175.32 954.973 170.507 949.92 173.893ZM541.64 186.96C533 189.587 530.747 202.173 537.827 207.693C544.413 214.107 556.64 210.227 558.6 201.333C561.027 192.08 550.4 183.013 541.64 186.96ZM1030.99 219.04C1028.97 220 1027.44 221.653 1025.92 223.213C1016.92 232.893 1008 242.64 998.813 252.147C996.827 254.4 994.347 256.773 994.293 260C994.04 264.373 998.427 268.24 1002.73 267.613C1005.65 267.28 1007.72 264.973 1009.71 263.027C1019.16 252.853 1028.69 242.76 1038.19 232.64C1040.01 230.6 1042.23 228.253 1041.68 225.253C1041.36 220.253 1035.48 216.773 1030.99 219.04ZM536.44 239.227C530.587 241.48 527.587 248.627 529.347 254.507C530.947 259.533 536.067 263.107 541.32 263.053C548.427 263.48 554.8 256.347 553.773 249.347C553.067 241.427 543.72 235.907 536.44 239.227ZM415.253 244.72C411.347 245.453 408.853 249.4 409.16 253.24C409.08 275.04 408.987 296.84 408.853 318.627C408.347 322.96 411.52 327.453 416.013 327.667C420.427 328.333 424.667 324.453 424.373 320C424.733 298.653 424.6 277.293 424.907 255.947C424.867 253.093 425.08 249.92 423.293 247.493C421.573 244.947 418.147 243.987 415.253 244.72ZM316.493 293.88C312.68 296.12 312.067 301.587 314.987 304.84C321.013 312.12 327.907 318.667 334.027 325.907C336.773 328.747 339.44 333.053 344.027 332.427C349.253 332.187 353.133 325.347 349.56 321.093C342.747 312.827 334.987 305.4 328.04 297.24C325.36 293.84 320.6 290.76 316.493 293.88ZM512.653 300.627C502.867 308.6 493.813 317.467 484.267 325.72C479.253 329.413 481.907 338.12 488.053 338.547C492.787 339.387 496.093 335.347 499.307 332.587C507 325.16 515.533 318.6 523.093 311.053C528.667 304.813 518.987 295.24 512.653 300.627ZM1040.36 335.053C1035.75 336.933 1034.52 343.76 1038.2 347.12C1041.05 350.133 1045.6 349.373 1049.36 349.52C1064.43 349.16 1079.55 349.92 1094.61 349.12C1100.16 349 1103.08 341.747 1099.89 337.467C1097.96 334.32 1093.93 334.2 1090.67 334.227C1075.99 334.387 1061.31 334.253 1046.63 334.253C1044.52 334.307 1042.32 334.213 1040.36 335.053ZM260.547 407.24C255.067 408.293 253.133 416.4 257.667 419.707C261.76 422.493 266.827 423.133 271.44 424.667C279.72 426.947 287.693 430.227 296.04 432.213C301.24 433.627 306.307 427.64 304.307 422.707C302.613 418.72 298 417.6 294.267 416.373C285.453 413.947 276.813 410.987 268.12 408.173C265.68 407.493 263.093 406.48 260.547 407.24ZM1026.92 429.64C1023.05 431 1021.08 436.04 1022.96 439.667C1024.68 442.533 1027.92 443.88 1030.83 445.2C1045.33 451.347 1059.48 458.333 1073.95 464.56C1078.41 466.88 1083.95 463.587 1084.43 458.693C1085.19 454.013 1080.53 451.36 1076.96 449.693C1063.4 443.72 1049.89 437.653 1036.52 431.293C1033.55 429.973 1030.17 428.227 1026.92 429.64ZM991.187 497.627C988.387 499.4 986.76 503.213 988.293 506.347C990.44 511.387 994.147 515.547 997.067 520.147C1013.03 543.747 1029.32 567.133 1045.47 590.613C1047.04 592.733 1049.09 595.053 1052 595.013C1057.17 595.587 1061.71 589.493 1059.33 584.787C1057.07 580.467 1053.91 576.72 1051.19 572.707C1034.91 548.987 1018.45 525.387 1002.48 501.453C1000.35 497.52 995.293 494.907 991.187 497.627ZM302.987 525.72C288.333 531.053 273.813 536.787 259.187 542.227C256.293 543.413 252.987 544.453 251.173 547.2C248.813 550.68 250.28 556.16 254.253 557.733C257.533 559.227 261.053 557.613 264.173 556.48C278.6 550.693 293.28 545.56 307.627 539.6C310 538.653 312.253 536.853 312.707 534.2C314.107 528.88 308.133 523.453 302.987 525.72ZM943.253 552.667C936.987 554.4 932.973 561.653 934.933 567.867C936.413 573.48 942.347 577.227 948.027 576.827C954.813 576.467 960.52 569.587 959.427 562.84C958.373 555.627 950.293 550.16 943.253 552.667ZM420.48 595.347C416.907 596.587 415.267 600.48 415.653 604.053C416 614.28 416.413 624.507 416.493 634.747C416.573 638.173 416.493 642.48 419.88 644.48C424.32 647.933 431.907 644.627 431.813 638.867C432.027 628.573 431.293 618.267 431.147 607.973C430.973 605.013 431.213 601.96 430.2 599.133C428.667 595.507 424.067 593.76 420.48 595.347ZM355.133 601.88C353.627 602.387 352.413 603.453 351.333 604.573C337.6 620.213 324.6 636.48 310.907 652.147C309.147 654.4 306.907 656.853 307.107 659.92C307.307 664.947 313.493 668.373 317.893 666.067C319.92 664.973 321.413 663.173 322.907 661.467C335.853 646.04 348.893 630.667 362.04 615.413C363.72 613.413 365.333 610.96 364.987 608.227C364.453 603.773 359.453 600.373 355.133 601.88Z"></path>
<path fill="#FDFDFD" d="M377.373 384.72C391.24 377.627 408.653 383.813 417.56 395.893C436 420.413 442.787 453.107 436.44 483.04C433.16 498.68 426.013 514.04 414 524.853C404.707 533.213 390.813 536.547 379.053 531.76C392.28 531.947 402.307 521.813 408.547 511.2C422.133 488.2 423.387 459.773 418.133 434.12C414.547 418.84 409.813 402.507 397.867 391.56C392.413 386.28 384.68 384.867 377.373 384.72Z"></path>
<path fill="#FDFDFD" d="M435.6 395.64C451.28 401.76 467.32 406.92 483.04 412.92C495.76 417.107 508 422.813 521.147 425.627C524.227 426.04 525.64 429.133 527.373 431.333C531.627 437.8 537.067 443.96 538.467 451.827C540.12 461.64 539.347 471.64 538.813 481.52C534.573 474.413 527.44 468.147 518.747 468.16C512.76 467.827 507.28 470.613 502.813 474.36C492 472.093 482.147 480.253 479.347 490.307C476.333 490.653 472.587 490.493 470.867 493.533C466.933 499.827 467.8 507.533 467.107 514.6C456.547 517.853 445.6 519.747 435.107 523.253C447.267 506.053 452.68 484.813 453.253 463.96C453.987 440.12 447.827 416.12 435.6 395.64Z"></path>
<path fill="#FDFDFD" d="M616.573 545.68C620.24 551.547 623.747 557.56 627.053 563.613C630.44 578.227 633.667 592.92 636.267 607.693C630.933 604.027 628.333 597.813 623.507 593.627C620.36 591.413 621.52 587.187 621.053 583.92C620.787 571.04 617.547 558.48 616.573 545.68Z"></path>
<path fill="#FDFDFD" d="M735.88 600.667C753.4 597.68 770.013 590.96 785.467 582.307C788.813 594.2 792.227 606.093 795.827 617.933C762.907 623.133 729.107 624.787 696.093 619.373C686.587 619.16 677.28 617.107 667.933 615.52C664.84 607.72 663.547 599.307 661.28 591.24C684.32 602.267 710.827 605.573 735.88 600.667Z"></path>
<path fill="#FDFDFD" d="M522.387 675.547C527.893 661.333 532.64 646.8 538.6 632.76C543.16 642.973 543.84 654.36 543.84 665.4C543.88 668.573 543.147 671.693 542.4 674.773C512.533 798.573 483.453 922.573 454.067 1046.49C445.173 1082.99 437.053 1119.67 428.12 1156.15C400.053 1156.17 371.987 1156 343.933 1156.23C354.373 1130.24 363.453 1103.75 373.413 1077.59C423.053 943.56 472.4 809.44 522.387 675.547Z"></path>
<path fill="#FDFDFD" d="M547.24 716.227C550.667 745.493 555.16 774.76 563.68 803.027C571.16 828.053 581.533 852.48 596.96 873.693C605.107 884.96 614.813 896.267 628.493 900.707C645.92 906.387 664.747 902.587 681.667 896.84C687.44 921.173 694.347 945.227 700.547 969.44C704.107 982.547 707.347 995.733 711.24 1008.75C651.333 1013.36 592.12 1027.6 536.787 1051.07C519.28 1058.45 502.12 1066.75 485.8 1076.47C475 1082.84 464.787 1090.33 456.067 1099.37C460.893 1085.19 463.627 1070.39 467.2 1055.85C488.8 964.347 510.36 872.813 532.293 781.373C537.2 759.64 543.04 738.107 547.24 716.227ZM557.867 904.573C552.907 908.187 550.107 913.947 547.08 919.133C541.64 929.867 538.2 942.867 542.52 954.56C544.547 959.067 547.16 964.16 552.08 965.987C557.093 967.827 563.067 962.56 561.4 957.387C559.413 952.92 555.333 949.213 555.453 943.987C555.413 934.387 559.973 925.36 565.787 917.96C567.52 915.507 570.04 912.773 569.067 909.52C568.08 904.68 562.12 902.053 557.867 904.573ZM596.573 946.093C588.04 947.773 584.213 959.387 590.173 965.76C596 973.44 609.733 970.653 612 961.267C614.813 952.4 605.347 943.187 596.573 946.093Z"></path>
<path fill="#FDFDFD" d="M648.48 727.187C653.347 730.173 658.387 733 663.947 734.493C672.2 736.96 680.933 736.52 689.44 736.107C690.24 739.707 690.893 743.333 691.507 746.973C694.107 745.853 696.693 744.707 699.293 743.587C702.4 748.573 705.373 753.627 708.52 758.587C698.947 774.813 687.64 792.707 668.627 798.613C663.547 784.173 660.453 769.093 656.24 754.387C653.627 745.32 651.133 736.227 648.48 727.187Z"></path>
<path fill="#FDFDFD" d="M695.4 891.413C709.227 886.093 721.907 878.293 734.427 870.48C734.413 899.547 739 928.747 749.293 956C753.28 966.987 758.307 977.56 763.653 987.933C757.267 993.133 752.493 999.933 748.347 1006.99C740.773 1006.99 733.227 1007.43 725.68 1007.69C715.72 968.907 705.187 930.253 695.4 891.413Z"></path>
<path fill="#24284A" d="M652.813 174.16C655.04 169.987 660.427 167.88 664.827 169.747C667.64 171.307 669.627 173.933 671.853 176.2C686.72 192.56 705.013 205.84 725.28 214.653C740.933 221.48 757.907 224.133 774.653 226.653C799.173 230.24 823.813 233.173 848.12 238.107C843.027 232.147 838.12 226.04 833.12 220.013C830.24 216.52 826.84 213.307 824.92 209.147C823.267 205.147 826.347 200.253 830.613 199.787C833.613 199.04 836.373 200.867 838.2 203.093C848.347 215.24 858.16 227.667 868.187 239.907C871.24 243.973 876.747 243.867 881.173 245.387C892.32 248.693 904.093 252.4 912.347 261.053C914.867 263.68 916.427 267.067 918.987 269.667C922.773 262.067 925.573 254.013 929.053 246.267C931.293 240.853 939.88 239.987 943.08 244.947C946.813 250.867 948.28 257.893 949.72 264.653C953.093 285.013 950.747 306.16 944.267 325.68C951.773 321.08 959.853 317.427 968.28 314.893C973.147 313.507 978.493 312.573 983.427 314.213C988.733 316.04 992 322.733 989.373 327.907C984.893 337.627 980.053 347.787 980.387 358.773C980.947 369.533 985.187 379.773 985.147 390.613C985.253 408.48 980.347 425.92 974.627 442.693C966.16 466.973 951.187 488.333 934.24 507.453C920.307 523.32 903.373 537.827 882.32 542.773C885.133 566.693 887.147 590.707 890.227 614.6C921.6 619.827 946.72 644.867 957.733 673.933C975.72 724.387 987.613 776.8 996.52 829.56C1004.39 877.973 1009.03 926.88 1011.08 975.88C1012.92 1020.16 1011.93 1064.57 1007.6 1108.68C1005.92 1124.63 1004.07 1140.59 1000.97 1156.33C1038.47 1156.13 1075.97 1156.45 1113.47 1156.31C1116.52 1156.2 1119.92 1157.27 1121.29 1160.27C1123.83 1164.83 1120.07 1171.12 1114.77 1170.75C1036.52 1171.12 958.267 1170.41 880.027 1170.51C808.88 1170.41 737.747 1170.43 666.6 1170.44C643.533 1171.49 620.413 1170.8 597.32 1171.01C483.987 1171.07 370.667 1170.67 257.333 1170.89C253.627 1170.77 249.667 1171.37 246.2 1169.77C241.68 1167.44 241.48 1160.16 245.68 1157.44C247.507 1156.27 249.76 1156.21 251.853 1156.16C277.4 1156.19 302.947 1156.21 328.493 1156.15C365.627 1055.25 403.067 954.467 440.227 853.587C469.067 776.107 497.52 698.467 526.693 621.12C517.027 612.667 507.347 604.12 499.307 594.04C484.027 575.293 473.253 552.787 468.92 528.947C457.947 531.693 447.053 534.707 436.067 537.32C425.48 540 414.72 542.16 404.413 545.827C391.52 550.44 376.56 547.88 365.68 539.667C352.267 529.813 344.187 514.36 339.733 498.64C331.36 468.267 333 435.187 344.453 405.84C349.84 392.52 357.907 379.227 370.933 372.267C381.933 366.2 395.467 365.96 407.067 370.48C441.2 382.547 475.147 395.187 509.173 407.56C511.173 400.213 510.573 391.347 516.187 385.547C522.307 380.227 530.773 379.187 538.52 378.16C556.693 376.16 575.067 376.947 593.173 379.2C598.973 379.973 602.36 385.493 604.307 390.48C606.72 396.573 608.013 403.027 609.36 409.427C612.12 381.013 620.147 351.32 640.653 330.4C622.173 325 605.133 315.267 590.587 302.733C586.427 299.4 587.653 291.893 592.467 289.8C594.84 288.747 597.507 289.147 600.027 289.267C611.187 290.16 622.467 290.48 633.6 289C617.773 279.227 606.44 263.08 601.12 245.387C596.507 230.4 595.147 213.853 600.093 198.787C601.32 194.24 605.507 190.333 610.453 191.053C615.973 191.88 618.013 197.84 620.693 201.947C630.013 218.533 643.107 233.747 660.827 241.573C654.453 231.04 649.053 219.68 647.52 207.333C645.96 196.133 646.987 184.067 652.813 174.16ZM673.72 232.96C677.907 239.173 684.4 243.307 688.84 249.293C688.667 253.587 686.693 259.627 681.413 259.427C672.64 259.76 663.867 257.933 655.627 255C636.773 247.947 621.88 233.027 612.133 215.693C611.773 237.267 619.52 260.253 637.333 273.507C643.68 278.88 651.907 281 658.907 285.24C661.907 286.707 660.96 290.653 660.24 293.24C659.16 297.12 654.933 298.333 651.533 299.387C640.827 302.293 629.96 304.68 618.907 305.693C639.227 317.613 663.467 321.773 686.747 319.547C690.293 319.347 694.347 318.68 697.28 321.227C703.6 326.08 709.2 331.947 716.44 335.507C738.747 347.027 764.067 350.333 788.733 352.787C793.107 353.427 798.427 353.48 801.32 357.413C804.24 361.693 803.733 367.16 804.253 372.08C805.693 398.347 811.587 424.72 824.533 447.8C832.627 444.013 841.587 440.493 850.68 442.387C863.573 444.467 874.587 454.213 878.773 466.507C883.507 479.547 880.36 494.533 872.32 505.613C865.16 515.96 853.64 522.787 841.373 525.227C856.453 531.413 874.013 531.853 888.893 524.88C909.093 515.587 923.507 497.813 936.747 480.573C948.693 465.133 958.12 447.693 963.453 428.867C967.6 414.8 971.76 400.08 969.6 385.293C968.307 375.947 964.907 366.853 965.227 357.32C965.493 347.493 968.907 338.16 972.16 329C958.16 333.36 945.48 340.933 933.08 348.613C930.04 346.92 926.68 345.213 925.093 341.92C925.093 333.133 929.667 325.36 931.493 316.947C935.8 301.68 937.373 285.68 935.68 269.88C930.853 280.56 926.76 291.76 919.827 301.307C917 305.947 910.107 304.373 907.373 300.493C906.227 291.893 908.68 282.493 903.96 274.6C898.067 264.36 885.573 261.493 875.107 258.267C847.213 251.293 818.707 247.08 790.24 243.24C769.493 240.2 748.453 237.88 728.44 231.307C703.227 222.467 680.653 207.053 662.053 187.987C660.48 203.747 663.96 220.253 673.72 232.96ZM669.4 334.653C665.48 334.507 661.56 333.507 657.653 333.947C642.827 346.387 633.893 364.187 628.013 382.307C632.213 380.333 636.493 377.613 641.333 377.827C645.987 378.027 649.773 383.307 647.653 387.68C645.84 391.04 641.76 391.84 638.587 393.36C631.84 395.987 627.187 401.76 621.307 405.72C620.507 411 620.227 416.347 619.64 421.653C626.667 424.173 633.573 427.267 639.267 432.187C641.587 424.587 641.48 416.213 645.133 409.093C648.96 403.187 659.387 407.453 658.053 414.333C655.267 428.467 652.093 442.667 646.52 456.013C641.6 465.493 644.28 476.493 642.96 486.707C650 486.92 657.04 487.413 664.067 488.027C667.4 488.307 671.347 489.133 673.027 492.4C675.613 496.68 671.88 503.2 666.773 502.733C658.64 502.16 650.533 501.067 642.373 500.707C641.573 510.933 641.2 521.373 637.947 531.187C636.787 535.267 633.467 538.093 630.36 540.733C633.347 547.107 636.987 553.187 641.613 558.52C655.333 574.853 675.893 584.253 696.68 587.547C723.52 591.76 750.933 584.467 774.547 571.787C779.4 569.32 784.907 565.96 790.533 567.893C795.84 569.613 798.107 575.227 799.573 580.12C804.533 596.933 809.573 613.707 814.613 630.493C832.693 619.507 853.573 612.92 874.827 612.84C872.467 590.093 870.08 567.347 867.56 544.627C853.227 544.747 839.027 540.72 826.693 533.467C821.987 530.573 816.84 528.067 813.107 523.92C812.747 520.907 812.907 517.867 812.707 514.853C815 513.827 817.253 512.227 819.907 512.507C826.2 512.8 832.573 513.4 838.84 512.24C851.333 510.36 862.467 501.173 866.693 489.267C870.827 477.333 865.76 462.12 853.853 456.827C845.04 452.947 834.76 456.467 828.133 462.893C824.427 465.987 822.44 470.493 819.4 474.133C815.52 478.333 807 473.733 808.4 468.187C809.24 464.347 811.4 461 813.347 457.64C796.853 430.507 789.947 398.64 788.72 367.2C767.76 365.667 746.747 362.667 726.827 355.72C713.12 351.08 700.307 343.72 689.867 333.653C683.053 333.88 676.253 335.347 669.4 334.653ZM377.373 384.72C384.68 384.867 392.413 386.28 397.867 391.56C409.813 402.507 414.547 418.84 418.133 434.12C423.387 459.773 422.133 488.2 408.547 511.2C402.307 521.813 392.28 531.947 379.053 531.76C390.813 536.547 404.707 533.213 414 524.853C426.013 514.04 433.16 498.68 436.44 483.04C442.787 453.107 436 420.413 417.56 395.893C408.653 383.813 391.24 377.627 377.373 384.72ZM541.453 391.92C536.653 392.56 531.587 392.92 527.28 395.32C524.56 400.333 524.72 406.28 524.013 411.8C539.6 411.493 555.293 410.693 570.827 412.587C576.413 413.067 581.24 416.733 583.453 421.84C593.373 443.413 592.667 467.867 590.72 491C595.2 492.04 600.173 493.053 603.04 497.053C611.4 507.28 612.013 521.093 614.987 533.44C619.787 531.44 625.2 528.52 625.533 522.627C629.213 498.84 629.48 474.667 629.507 450.653C628.947 447.173 630.307 442.24 626.707 440.12C619.147 435.307 610.053 433.84 602.187 429.64C598.64 427.867 598.133 423.453 597.147 420.027C595.213 410.867 593.507 401.587 589.8 392.92C573.787 390.84 557.52 390.427 541.453 391.92ZM435.6 395.64C447.827 416.12 453.987 440.12 453.253 463.96C452.68 484.813 447.267 506.053 435.107 523.253C445.6 519.747 456.547 517.853 467.107 514.6C467.8 507.533 466.933 499.827 470.867 493.533C472.587 490.493 476.333 490.653 479.347 490.307C482.147 480.253 492 472.093 502.813 474.36C507.28 470.613 512.76 467.827 518.747 468.16C527.44 468.147 534.573 474.413 538.813 481.52C539.347 471.64 540.12 461.64 538.467 451.827C537.067 443.96 531.627 437.8 527.373 431.333C525.64 429.133 524.227 426.04 521.147 425.627C508 422.813 495.76 417.107 483.04 412.92C467.32 406.92 451.28 401.76 435.6 395.64ZM361.667 406.973C352.933 418.333 349.32 432.72 347.787 446.733C346.293 465.493 348.56 485.027 356.613 502.187C360.52 510.307 367.427 519.12 377.333 518.893C382.6 519.2 386.76 515.8 390.28 512.333C385.04 508.293 379.787 504.013 376.387 498.227C366.48 482.16 363.68 462.373 366.387 443.88C368.733 428.08 376.467 412.52 390.053 403.507C387.293 401.427 384.813 398.44 381.187 397.973C373.587 396.787 366.16 401.04 361.667 406.973ZM386.307 426.373C379.667 437.187 378.2 450.28 378.947 462.72C379.52 477.32 385.373 492.253 397.4 501.147C412.013 474.6 409.44 441.667 397.853 414.533C393.48 417.893 389.147 421.547 386.307 426.373ZM547 425.387C554.827 445.707 555.12 468.093 552.733 489.467C552.253 495.72 548.96 502.267 551.773 508.36C554.933 515.533 558.467 522.547 561.88 529.6C564.133 522.853 566.573 516.133 569.987 509.867C572.613 505.067 574.947 500 575.72 494.533C578.68 474.293 578.933 453.227 573.013 433.493C571.933 430.947 571.2 427.24 568 426.693C561.12 425.173 553.987 425.747 547 425.387ZM511.987 490.613C511.787 501.84 514.653 512.853 517.733 523.56C521.613 537.44 528.36 550.333 536.88 561.907C541.573 568.507 530.707 576.533 525.52 570.533C506.92 547.707 499.253 517.933 496.947 489.08C493.773 487.573 492.107 491.493 491.067 493.813C486.48 506.307 489.147 519.973 492.987 532.293C497.027 546 503.32 559.173 512.427 570.24C514.413 573.027 517.52 576.173 516.267 579.893C515.48 583.013 512.36 584.467 510.027 586.24C517.133 594.173 524.827 601.573 533.173 608.2C541.613 614.947 549.133 623.293 553.013 633.52C557.52 645.333 557.293 658.187 558.173 670.613C560.093 712.813 564.493 755.2 576.053 795.947C584.013 823.12 594.813 850.2 613.173 872.133C620.84 882.08 632.413 889.653 645.32 889.613C663.08 889.573 680.173 883.387 696.12 876.04C719.44 865.08 740.893 850.52 760.88 834.333C779.733 819.587 797.12 803.053 813.32 785.453C809.733 777.267 805.947 769.133 801.027 761.64C789.013 743.013 770.787 728.293 749.613 721.44C742.4 730.027 736.44 739.587 730.053 748.787C717.573 766.707 707.973 787.267 690.68 801.28C682.813 807.587 673.08 813.68 662.547 812.053C654.773 810.947 649.587 803.933 647.12 797.013C642.84 784.56 642.427 771.267 639.653 758.48C632.413 724.28 623.973 690.333 614.2 656.76C610.587 645.56 607.853 633.84 601.493 623.773C603.76 615.533 606.107 607.253 606.627 598.667C608.64 579.333 603.44 560.36 601.133 541.307C599.253 530.707 598.88 519.547 594.36 509.64C593.053 505.947 587.733 504.653 585.747 508.507C578.333 519.493 576.427 532.973 572.013 545.24C570.307 550.08 563.867 552.653 559.493 549.76C555.187 546.893 552.747 542.12 550.053 537.867C541.2 522.96 535.84 506.333 527.6 491.12C525.533 487.627 523.173 483.24 518.667 482.813C514.573 482.573 511.96 486.96 511.987 490.613ZM616.573 545.68C617.547 558.48 620.787 571.04 621.053 583.92C621.52 587.187 620.36 591.413 623.507 593.627C628.333 597.813 630.933 604.027 636.267 607.693C633.667 592.92 630.44 578.227 627.053 563.613C623.747 557.56 620.24 551.547 616.573 545.68ZM735.88 600.667C710.827 605.573 684.32 602.267 661.28 591.24C663.547 599.307 664.84 607.72 667.933 615.52C677.28 617.107 686.587 619.16 696.093 619.373C729.107 624.787 762.907 623.133 795.827 617.933C792.227 606.093 788.813 594.2 785.467 582.307C770.013 590.96 753.4 597.68 735.88 600.667ZM619.747 608.013C618.44 613.32 617.12 618.627 615.48 623.84C622.373 628.747 626.107 636.973 626.507 645.293C626.733 654.12 631.76 661.72 634.213 669.987C639.227 683.307 642.053 697.813 650.24 709.693C658.387 720.853 673.133 723.32 686.08 722.467C682.813 716.307 679.08 710.427 675.6 704.4C660.733 678.347 648.853 650.627 640.28 621.893C631.373 621.333 624.133 615.467 619.747 608.013ZM804.453 655.027C785.547 669.947 769.733 688.6 757.44 709.28C791.667 720.453 817.173 750.773 828.027 784.44C843.187 772.72 858.467 761.147 873.827 749.693C876.213 747.947 878.64 746.16 881.44 745.107C885.92 743.24 891.813 746.947 891.373 751.987C891.427 755 889.08 757.173 886.827 758.787C872.173 768.92 858.173 779.96 844.147 790.947C836.973 796.573 828.453 802.96 818.747 800.453C813.76 805.587 808.88 810.84 803.627 815.707C853.547 854.613 916.08 879.987 980.04 877.573C982.893 877.467 985.76 877.813 988.6 878.213C980.107 811.6 966.96 745.28 944.8 681.773C939.133 665.693 929.107 650.88 915.107 640.947C900.867 630.693 882.84 625.76 865.387 627.813C842.8 630.267 822.173 641.307 804.453 655.027ZM671.933 630.667C675.68 640.84 679.347 651.04 683.293 661.133C683.44 651.493 684.293 641.88 686.16 632.427C681.4 631.907 676.653 631.373 671.933 630.667ZM775.693 660.76C783.8 652.88 792.48 645.613 801.44 638.72C804.187 637.013 800.533 633.987 800.24 631.773C788.973 638.333 782.413 650.053 775.693 660.76ZM522.387 675.547C472.4 809.44 423.053 943.56 373.413 1077.59C363.453 1103.75 354.373 1130.24 343.933 1156.23C371.987 1156 400.053 1156.17 428.12 1156.15C437.053 1119.67 445.173 1082.99 454.067 1046.49C483.453 922.573 512.533 798.573 542.4 674.773C543.147 671.693 543.88 668.573 543.84 665.4C543.84 654.36 543.16 642.973 538.6 632.76C532.64 646.8 527.893 661.333 522.387 675.547ZM700.96 634.733C697.627 646.84 697.907 659.587 698.72 672.013C699.92 682.933 701.507 694.107 706.453 704.067C711.52 714.56 718.053 724.253 724.2 734.133C731.04 724.56 738.84 715.333 742.653 704.027C752.027 680.24 758.693 654.36 775.96 634.733C751.12 638.093 725.813 637.773 700.96 634.733ZM547.24 716.227C543.04 738.107 537.2 759.64 532.293 781.373C510.36 872.813 488.8 964.347 467.2 1055.85C463.627 1070.39 460.893 1085.19 456.067 1099.37C464.787 1090.33 475 1082.84 485.8 1076.47C502.12 1066.75 519.28 1058.45 536.787 1051.07C592.12 1027.6 651.333 1013.36 711.24 1008.75C707.347 995.733 704.107 982.547 700.547 969.44C694.347 945.227 687.44 921.173 681.667 896.84C664.747 902.587 645.92 906.387 628.493 900.707C614.813 896.267 605.107 884.96 596.96 873.693C581.533 852.48 571.16 828.053 563.68 803.027C555.16 774.76 550.667 745.493 547.24 716.227ZM648.48 727.187C651.133 736.227 653.627 745.32 656.24 754.387C660.453 769.093 663.547 784.173 668.627 798.613C687.64 792.707 698.947 774.813 708.52 758.587C705.373 753.627 702.4 748.573 699.293 743.587C696.693 744.707 694.107 745.853 691.507 746.973C690.893 743.333 690.24 739.707 689.44 736.107C680.933 736.52 672.2 736.96 663.947 734.493C658.387 733 653.347 730.173 648.48 727.187ZM749.453 860.587C747.293 897.867 754.587 935.627 770.76 969.293C773.333 975.293 776.907 980.8 779.333 986.867C781.213 991.067 777.627 994.747 774.68 997.24C762.707 1007.03 756.28 1022.07 753.96 1037.07C782.533 1044.61 809.453 1057.31 838.04 1064.83C881.64 1076.32 926.96 1079.97 971.933 1079.89C979.72 1079.53 987.653 1080.23 995.333 1078.65C999.507 1020.17 996.467 961.427 991.307 903.12C965.56 905.587 939.56 902.933 914.32 897.547C866.547 887.04 822.093 864.213 783.547 834.387C772.133 842.947 761.44 852.693 749.453 860.587ZM695.4 891.413C705.187 930.253 715.72 968.907 725.68 1007.69C733.227 1007.43 740.773 1006.99 748.347 1006.99C752.493 999.933 757.267 993.133 763.653 987.933C758.307 977.56 753.28 966.987 749.293 956C739 928.747 734.413 899.547 734.427 870.48C721.907 878.293 709.227 886.093 695.4 891.413ZM673.933 1027.48C618.427 1035.95 564.053 1052.55 513.827 1077.72C497.56 1086.12 481 1094.83 468.053 1108.03C463.16 1112.97 459.813 1119.24 457.84 1125.88C454.827 1135.79 452.08 1145.77 449.28 1155.75C588.4 1156.04 727.52 1155.49 866.627 1155.81C906.64 1156.45 946.68 1156.51 986.693 1156.24C989.72 1135.52 992.853 1114.79 994.413 1093.88C946.733 1095.64 898.653 1092.77 851.907 1082.93C816.653 1075.81 783.787 1060.79 749.427 1050.63C745.293 1049.25 739.92 1047.51 739.067 1042.56C738.347 1035.27 740.987 1028.2 742.453 1021.16C719.56 1022.63 696.6 1023.72 673.933 1027.48Z"></path>
<path fill="#24284A" d="M949.92 173.893C954.973 170.507 962.573 175.32 961.493 181.347C959.787 191.187 956.827 200.773 954.987 210.6C953.987 214.253 953.907 218.813 950.64 221.32C945.387 224.96 936.88 219.747 938.693 213.253C940.613 202.973 943.64 192.907 945.627 182.627C946.387 179.493 946.867 175.693 949.92 173.893Z"></path>
<path fill="#24284A" d="M541.64 186.96C550.4 183.013 561.027 192.08 558.6 201.333C556.64 210.226 544.413 214.107 537.827 207.693C530.747 202.173 533 189.586 541.64 186.96Z"></path>
<path fill="#24284A" d="M1030.99 219.04C1035.48 216.773 1041.36 220.253 1041.68 225.253C1042.23 228.253 1040.01 230.6 1038.19 232.64C1028.69 242.76 1019.16 252.853 1009.71 263.027C1007.72 264.973 1005.65 267.28 1002.73 267.613C998.427 268.24 994.04 264.373 994.293 260C994.347 256.773 996.827 254.4 998.813 252.147C1008 242.64 1016.92 232.893 1025.92 223.213C1027.44 221.653 1028.97 220 1030.99 219.04Z"></path>
<path fill="#24284A" d="M536.44 239.227C543.72 235.907 553.067 241.427 553.773 249.347C554.8 256.347 548.427 263.48 541.32 263.053C536.067 263.107 530.947 259.533 529.347 254.507C527.587 248.627 530.587 241.48 536.44 239.227Z"></path>
<path fill="#24284A" d="M415.253 244.72C418.147 243.987 421.573 244.947 423.293 247.493C425.08 249.92 424.867 253.093 424.907 255.947C424.6 277.293 424.733 298.653 424.373 320C424.667 324.453 420.427 328.333 416.013 327.667C411.52 327.453 408.347 322.96 408.853 318.627C408.987 296.84 409.08 275.04 409.16 253.24C408.853 249.4 411.347 245.453 415.253 244.72Z"></path>
<path fill="#24284A" d="M316.493 293.88C320.6 290.76 325.36 293.84 328.04 297.24C334.987 305.4 342.747 312.827 349.56 321.093C353.133 325.347 349.253 332.187 344.027 332.427C339.44 333.053 336.773 328.747 334.027 325.907C327.907 318.667 321.013 312.12 314.987 304.84C312.067 301.587 312.68 296.12 316.493 293.88Z"></path>
<path fill="#24284A" d="M512.653 300.627C518.987 295.24 528.667 304.813 523.093 311.053C515.533 318.6 507 325.16 499.307 332.587C496.093 335.347 492.787 339.387 488.053 338.547C481.907 338.12 479.253 329.413 484.267 325.72C493.813 317.467 502.867 308.6 512.653 300.627Z"></path>
<path fill="#24284A" d="M1040.36 335.053C1042.32 334.213 1044.52 334.306 1046.63 334.253C1061.31 334.253 1075.99 334.386 1090.67 334.226C1093.93 334.2 1097.96 334.32 1099.89 337.466C1103.08 341.746 1100.16 349 1094.61 349.12C1079.55 349.92 1064.43 349.16 1049.36 349.52C1045.6 349.373 1041.05 350.133 1038.2 347.12C1034.52 343.76 1035.75 336.933 1040.36 335.053Z"></path>
<path fill="#24284A" d="M687.173 379.266C689.347 377.786 692.133 378.08 694.64 378.16C711.08 379.48 727.773 383.666 741.373 393.36C744.4 395.653 747.707 398 749.453 401.493C751.347 405.986 747.56 411.733 742.6 411.4C738.267 410.32 735.307 406.706 731.693 404.346C719.627 395.866 704.707 393.16 690.28 392.28C683.733 391.84 681.467 382.573 687.173 379.266Z"></path>
<path fill="#24284A" d="M260.547 407.24C263.093 406.48 265.68 407.493 268.12 408.173C276.813 410.987 285.453 413.947 294.267 416.373C298 417.6 302.613 418.72 304.307 422.707C306.307 427.64 301.24 433.627 296.04 432.213C287.693 430.227 279.72 426.947 271.44 424.667C266.827 423.133 261.76 422.493 257.667 419.707C253.133 416.4 255.067 408.293 260.547 407.24Z"></path>
<path fill="#24284A" d="M687.107 420.547C690.987 418.96 695.773 421.547 696.84 425.52C697.253 428.013 696.08 430.413 695.427 432.773C692.787 440.427 691.227 449.067 693.96 456.907C696.173 462.36 703.027 462.493 708 462.293C714.92 462.32 721.253 459.013 728.053 458.467C734.373 458.773 737.16 468.267 731.52 471.507C721.947 476.467 710.653 477.253 700.067 476.453C691.813 476.013 683.6 471.2 680.68 463.213C676.893 452.84 678.253 441.373 680.653 430.827C681.72 426.96 682.973 422.173 687.107 420.547Z"></path>
<path fill="#24284A" d="M1026.92 429.64C1030.17 428.227 1033.55 429.973 1036.52 431.293C1049.89 437.653 1063.4 443.72 1076.96 449.693C1080.53 451.36 1085.19 454.013 1084.43 458.693C1083.95 463.587 1078.41 466.88 1073.95 464.56C1059.48 458.333 1045.33 451.347 1030.83 445.2C1027.92 443.88 1024.68 442.533 1022.96 439.667C1021.08 436.04 1023.05 431 1026.92 429.64Z"></path>
<path fill="#24284A" d="M991.187 497.626C995.293 494.906 1000.35 497.52 1002.48 501.453C1018.45 525.386 1034.91 548.986 1051.19 572.706C1053.91 576.72 1057.07 580.466 1059.33 584.786C1061.71 589.493 1057.17 595.586 1052 595.013C1049.09 595.053 1047.04 592.733 1045.47 590.613C1029.32 567.133 1013.03 543.746 997.067 520.146C994.147 515.546 990.44 511.386 988.293 506.346C986.76 503.213 988.387 499.4 991.187 497.626Z"></path>
<path fill="#24284A" d="M659.12 521.52C663.067 519.173 667.12 522.52 670.773 523.907C684.4 530.4 700.707 528.973 713.8 521.867C719.28 518.453 726.573 525.587 723.093 531.133C719.427 537.04 711.947 538.573 705.733 540.427C690.253 543.893 672.92 542.573 659.2 534.16C654.267 531.613 654.36 524.187 659.12 521.52Z"></path>
<path fill="#24284A" d="M302.987 525.72C308.133 523.453 314.107 528.88 312.707 534.2C312.253 536.853 310 538.653 307.627 539.6C293.28 545.56 278.6 550.693 264.173 556.48C261.053 557.613 257.533 559.227 254.253 557.733C250.28 556.16 248.813 550.68 251.173 547.2C252.987 544.453 256.293 543.413 259.187 542.227C273.813 536.787 288.333 531.053 302.987 525.72Z"></path>
<path fill="#24284A" d="M943.253 552.667C950.293 550.16 958.373 555.627 959.427 562.84C960.52 569.587 954.813 576.467 948.027 576.827C942.347 577.227 936.413 573.48 934.933 567.867C932.973 561.653 936.987 554.4 943.253 552.667Z"></path>
<path fill="#24284A" d="M420.48 595.347C424.067 593.76 428.667 595.507 430.2 599.133C431.213 601.96 430.973 605.013 431.147 607.973C431.293 618.267 432.027 628.573 431.813 638.867C431.907 644.627 424.32 647.933 419.88 644.48C416.493 642.48 416.573 638.173 416.493 634.747C416.413 624.507 416 614.28 415.653 604.053C415.267 600.48 416.907 596.587 420.48 595.347Z"></path>
<path fill="#24284A" d="M355.133 601.88C359.453 600.373 364.453 603.773 364.987 608.227C365.333 610.96 363.72 613.413 362.04 615.413C348.893 630.667 335.853 646.04 322.907 661.467C321.413 663.173 319.92 664.973 317.893 666.067C313.493 668.373 307.307 664.947 307.107 659.92C306.907 656.853 309.147 654.4 310.907 652.147C324.6 636.48 337.6 620.213 351.333 604.573C352.413 603.453 353.627 602.387 355.133 601.88Z"></path>
<path fill="#24284A" d="M557.867 904.573C562.12 902.053 568.08 904.68 569.067 909.52C570.04 912.773 567.52 915.507 565.787 917.96C559.973 925.36 555.413 934.387 555.453 943.987C555.333 949.213 559.413 952.92 561.4 957.387C563.067 962.56 557.093 967.827 552.08 965.987C547.16 964.16 544.547 959.067 542.52 954.56C538.2 942.867 541.64 929.867 547.08 919.133C550.107 913.947 552.907 908.187 557.867 904.573Z"></path>
<path fill="#24284A" d="M815.027 937.427C814.027 931.173 816.8 925.213 820.413 920.307C825.013 930.253 829.053 940.693 836.16 949.213C849.08 965.68 869.387 974.453 889.573 978C892.88 978.467 896.267 980.6 896.853 984.147C897.867 988.96 892.947 993.973 888.08 992.493C867.36 988.853 846.8 980.667 831.453 965.907C823.653 958.16 816.493 948.627 815.027 937.427Z"></path>
<path fill="#24284A" d="M596.573 946.093C605.347 943.187 614.813 952.4 612 961.267C609.733 970.653 596 973.44 590.173 965.76C584.213 959.387 588.04 947.773 596.573 946.093Z"></path>
<path fill="#7D6963" d="M673.72 232.96C663.96 220.253 660.48 203.747 662.053 187.987C680.653 207.053 703.227 222.467 728.44 231.307C748.453 237.88 769.493 240.2 790.24 243.24C818.707 247.08 847.213 251.293 875.107 258.267C885.573 261.493 898.067 264.36 903.96 274.6C908.68 282.493 906.227 291.893 907.373 300.493C910.107 304.373 917 305.947 919.827 301.307C926.76 291.76 930.853 280.56 935.68 269.88C937.373 285.68 935.8 301.68 931.493 316.947C929.667 325.36 925.093 333.133 925.093 341.92C922.533 336.48 918.08 331.693 911.72 331.307C897.973 328.253 882.613 337.773 880.507 351.907C876.88 370.853 895.493 390.467 914.6 387.44C924.893 385.733 933.36 376.88 935.16 366.68C936.36 360.587 934.733 354.453 933.08 348.613C945.48 340.933 958.16 333.36 972.16 329C968.907 338.16 965.493 347.493 965.227 357.32C964.907 366.853 968.307 375.947 969.6 385.293C971.76 400.08 967.6 414.8 963.453 428.867C958.12 447.693 948.693 465.133 936.747 480.573C923.507 497.813 909.093 515.587 888.893 524.88C874.013 531.853 856.453 531.413 841.373 525.227C853.64 522.787 865.16 515.96 872.32 505.613C880.36 494.533 883.507 479.547 878.773 466.507C874.587 454.213 863.573 444.467 850.68 442.387C841.587 440.493 832.627 444.013 824.533 447.8C811.587 424.72 805.693 398.347 804.253 372.08C803.733 367.16 804.24 361.693 801.32 357.413C798.427 353.48 793.107 353.427 788.733 352.787C764.067 350.333 738.747 347.027 716.44 335.507C709.2 331.947 703.6 326.08 697.28 321.227C694.347 318.68 690.293 319.347 686.747 319.547C663.467 321.773 639.227 317.613 618.907 305.693C629.96 304.68 640.827 302.293 651.533 299.387C654.933 298.333 659.16 297.12 660.24 293.24C660.96 290.653 661.907 286.707 658.907 285.24C651.907 281 643.68 278.88 637.333 273.507C619.52 260.253 611.773 237.267 612.133 215.693C621.88 233.027 636.773 247.947 655.627 255C663.867 257.933 672.64 259.76 681.413 259.427C686.693 259.627 688.667 253.587 688.84 249.293C684.4 243.307 677.907 239.173 673.72 232.96Z"></path>
<path fill="#FD7831" d="M880.507 351.907C882.613 337.773 897.973 328.253 911.72 331.307C918.08 331.693 922.533 336.48 925.093 341.92C926.68 345.213 930.04 346.92 933.08 348.613C934.733 354.453 936.36 360.587 935.16 366.68C933.36 376.88 924.893 385.733 914.6 387.44C895.493 390.467 876.88 370.853 880.507 351.907Z"></path>
<path fill="#FD7831" d="M386.307 426.373C389.147 421.547 393.48 417.893 397.853 414.533C409.44 441.667 412.013 474.6 397.4 501.147C385.373 492.253 379.52 477.32 378.947 462.72C378.2 450.28 379.667 437.187 386.307 426.373Z"></path>
<path fill="#FD7831" d="M708.627 482.293C718.16 480.253 727.88 482.76 737.453 483.333C743.36 483.587 749.96 485.467 752.813 491.16C758.8 500.293 751.04 514.6 740.013 514.027C730.4 513.453 720.92 511.52 711.307 511.013C704.587 510.84 698.773 505.213 698.093 498.587C697.04 491.493 701.947 484.467 708.627 482.293Z"></path>
<path fill="#FDE0CA" d="M669.4 334.653C676.253 335.347 683.053 333.88 689.867 333.653C700.307 343.72 713.12 351.08 726.827 355.72C746.747 362.667 767.76 365.667 788.72 367.2C789.947 398.64 796.853 430.507 813.347 457.64C811.4 461 809.24 464.347 808.4 468.187C807 473.733 815.52 478.333 819.4 474.133C822.44 470.493 824.427 465.987 828.133 462.893C834.76 456.467 845.04 452.947 853.853 456.827C865.76 462.12 870.827 477.333 866.693 489.267C862.467 501.173 851.333 510.36 838.84 512.24C832.573 513.4 826.2 512.8 819.907 512.507C817.253 512.227 815 513.827 812.707 514.853C812.907 517.867 812.747 520.907 813.107 523.92C816.84 528.067 821.987 530.573 826.693 533.467C839.027 540.72 853.227 544.747 867.56 544.627C870.08 567.347 872.467 590.093 874.827 612.84C853.573 612.92 832.693 619.507 814.613 630.493C809.573 613.707 804.533 596.933 799.573 580.12C798.107 575.227 795.84 569.613 790.533 567.893C784.907 565.96 779.4 569.32 774.547 571.787C750.933 584.467 723.52 591.76 696.68 587.547C675.893 584.253 655.333 574.853 641.613 558.52C636.987 553.187 633.347 547.107 630.36 540.733C633.467 538.093 636.787 535.267 637.947 531.187C641.2 521.373 641.573 510.933 642.373 500.707C650.533 501.067 658.64 502.16 666.773 502.733C671.88 503.2 675.613 496.68 673.027 492.4C671.347 489.133 667.4 488.307 664.067 488.027C657.04 487.413 650 486.92 642.96 486.707C644.28 476.493 641.6 465.493 646.52 456.013C652.093 442.667 655.267 428.467 658.053 414.333C659.387 407.453 648.96 403.187 645.133 409.093C641.48 416.213 641.587 424.587 639.267 432.187C633.573 427.267 626.667 424.173 619.64 421.653C620.227 416.347 620.507 411 621.307 405.72C627.187 401.76 631.84 395.987 638.587 393.36C641.76 391.84 645.84 391.04 647.653 387.68C649.773 383.307 645.987 378.027 641.333 377.827C636.493 377.613 632.213 380.333 628.013 382.307C633.893 364.187 642.827 346.387 657.653 333.947C661.56 333.507 665.48 334.507 669.4 334.653ZM687.173 379.267C681.467 382.573 683.733 391.84 690.28 392.28C704.707 393.16 719.627 395.867 731.693 404.347C735.307 406.707 738.267 410.32 742.6 411.4C747.56 411.733 751.347 405.987 749.453 401.493C747.707 398 744.4 395.653 741.373 393.36C727.773 383.667 711.08 379.48 694.64 378.16C692.133 378.08 689.347 377.787 687.173 379.267ZM687.107 420.547C682.973 422.173 681.72 426.96 680.653 430.827C678.253 441.373 676.893 452.84 680.68 463.213C683.6 471.2 691.813 476.013 700.067 476.453C710.653 477.253 721.947 476.467 731.52 471.507C737.16 468.267 734.373 458.773 728.053 458.467C721.253 459.013 714.92 462.32 708 462.293C703.027 462.493 696.173 462.36 693.96 456.907C691.227 449.067 692.787 440.427 695.427 432.773C696.08 430.413 697.253 428.013 696.84 425.52C695.773 421.547 690.987 418.96 687.107 420.547ZM708.627 482.293C701.947 484.467 697.04 491.493 698.093 498.587C698.773 505.213 704.587 510.84 711.307 511.013C720.92 511.52 730.4 513.453 740.013 514.027C751.04 514.6 758.8 500.293 752.813 491.16C749.96 485.467 743.36 483.587 737.453 483.333C727.88 482.76 718.16 480.253 708.627 482.293ZM659.12 521.52C654.36 524.187 654.267 531.613 659.2 534.16C672.92 542.573 690.253 543.893 705.733 540.427C711.947 538.573 719.427 537.04 723.093 531.133C726.573 525.587 719.28 518.453 713.8 521.867C700.707 528.973 684.4 530.4 670.773 523.907C667.12 522.52 663.067 519.173 659.12 521.52Z"></path>
<path fill="#FDE0CA" d="M511.987 490.613C511.96 486.96 514.573 482.573 518.667 482.813C523.173 483.24 525.533 487.627 527.6 491.12C535.84 506.333 541.2 522.96 550.053 537.867C552.747 542.12 555.187 546.893 559.493 549.76C563.867 552.653 570.307 550.08 572.013 545.24C576.427 532.973 578.333 519.493 585.747 508.507C587.733 504.653 593.053 505.947 594.36 509.64C598.88 519.547 599.253 530.707 601.133 541.307C603.44 560.36 608.64 579.333 606.627 598.667C606.107 607.253 603.76 615.533 601.493 623.773C607.853 633.84 610.587 645.56 614.2 656.76C623.973 690.333 632.413 724.28 639.653 758.48C642.427 771.267 642.84 784.56 647.12 797.013C649.587 803.933 654.773 810.947 662.547 812.053C673.08 813.68 682.813 807.587 690.68 801.28C707.973 787.267 717.573 766.707 730.053 748.787C736.44 739.587 742.4 730.027 749.613 721.44C770.787 728.293 789.013 743.013 801.027 761.64C805.947 769.133 809.733 777.267 813.32 785.453C797.12 803.053 779.733 819.587 760.88 834.333C740.893 850.52 719.44 865.08 696.12 876.04C680.173 883.387 663.08 889.573 645.32 889.613C632.413 889.653 620.84 882.08 613.173 872.133C594.813 850.2 584.013 823.12 576.053 795.947C564.493 755.2 560.093 712.813 558.173 670.613C557.293 658.187 557.52 645.333 553.013 633.52C549.133 623.293 541.613 614.947 533.173 608.2C524.827 601.573 517.133 594.173 510.027 586.24C512.36 584.467 515.48 583.013 516.267 579.893C517.52 576.173 514.413 573.027 512.427 570.24C503.32 559.173 497.027 546 492.987 532.293C489.147 519.973 486.48 506.307 491.067 493.813C492.107 491.493 493.773 487.573 496.947 489.08C499.253 517.933 506.92 547.707 525.52 570.533C530.707 576.533 541.573 568.507 536.88 561.907C528.36 550.333 521.613 537.44 517.733 523.56C514.653 512.853 511.787 501.84 511.987 490.613Z"></path>
<path fill="#FDE0CA" d="M619.747 608.013C624.133 615.467 631.373 621.333 640.28 621.893C648.853 650.627 660.733 678.347 675.6 704.4C679.08 710.427 682.813 716.307 686.08 722.467C673.133 723.32 658.387 720.853 650.24 709.693C642.053 697.813 639.227 683.307 634.213 669.987C631.76 661.72 626.733 654.12 626.507 645.293C626.107 636.973 622.373 628.747 615.48 623.84C617.12 618.627 618.44 613.32 619.747 608.013Z"></path>
<path fill="#FDE0CA" d="M671.933 630.667C676.653 631.373 681.4 631.907 686.16 632.427C684.293 641.88 683.44 651.493 683.293 661.133C679.347 651.04 675.68 640.84 671.933 630.667Z"></path>
<path fill="#446EA5" d="M541.453 391.92C557.52 390.427 573.787 390.84 589.8 392.92C593.507 401.587 595.213 410.867 597.147 420.027C598.133 423.453 598.64 427.867 602.187 429.64C610.053 433.84 619.147 435.307 626.707 440.12C630.307 442.24 628.947 447.173 629.507 450.653C629.48 474.667 629.213 498.84 625.533 522.627C625.2 528.52 619.787 531.44 614.987 533.44C612.013 521.093 611.4 507.28 603.04 497.053C600.173 493.053 595.2 492.04 590.72 491C592.667 467.867 593.373 443.413 583.453 421.84C581.24 416.733 576.413 413.067 570.827 412.587C555.293 410.693 539.6 411.493 524.013 411.8C524.72 406.28 524.56 400.333 527.28 395.32C531.587 392.92 536.653 392.56 541.453 391.92Z"></path>
<path fill="#446EA5" d="M361.667 406.973C366.16 401.04 373.587 396.787 381.187 397.973C384.813 398.44 387.293 401.427 390.053 403.507C376.467 412.52 368.733 428.08 366.387 443.88C363.68 462.373 366.48 482.16 376.387 498.227C379.787 504.013 385.04 508.293 390.28 512.333C386.76 515.8 382.6 519.2 377.333 518.893C367.427 519.12 360.52 510.307 356.613 502.187C348.56 485.027 346.293 465.493 347.787 446.733C349.32 432.72 352.933 418.333 361.667 406.973Z"></path>
<path fill="#446EA5" d="M547 425.387C553.987 425.747 561.12 425.173 568 426.693C571.2 427.24 571.933 430.947 573.013 433.493C578.933 453.227 578.68 474.293 575.72 494.533C574.947 500 572.613 505.067 569.987 509.867C566.573 516.133 564.133 522.853 561.88 529.6C558.467 522.547 554.933 515.533 551.773 508.36C548.96 502.267 552.253 495.72 552.733 489.467C555.12 468.093 554.827 445.707 547 425.387Z"></path>
<path fill="#446EA5" d="M673.933 1027.48C696.6 1023.72 719.56 1022.63 742.453 1021.16C740.987 1028.2 738.347 1035.27 739.067 1042.56C739.92 1047.51 745.293 1049.25 749.427 1050.63C783.787 1060.79 816.653 1075.81 851.907 1082.93C898.653 1092.77 946.733 1095.64 994.413 1093.88C992.853 1114.79 989.72 1135.52 986.693 1156.24C946.68 1156.51 906.64 1156.45 866.627 1155.81C727.52 1155.49 588.4 1156.04 449.28 1155.75C452.08 1145.77 454.827 1135.79 457.84 1125.88C459.813 1119.24 463.16 1112.97 468.053 1108.03C481 1094.83 497.56 1086.12 513.827 1077.72C564.053 1052.55 618.427 1035.95 673.933 1027.48Z"></path>
<path fill="#FFDC94" d="M804.453 655.027C822.173 641.307 842.8 630.267 865.387 627.813C882.84 625.76 900.867 630.693 915.107 640.947C929.107 650.88 939.133 665.693 944.8 681.773C966.96 745.28 980.107 811.6 988.6 878.213C985.76 877.813 982.893 877.467 980.04 877.573C916.08 879.987 853.547 854.613 803.627 815.707C808.88 810.84 813.76 805.587 818.747 800.453C828.453 802.96 836.973 796.573 844.147 790.947C858.173 779.96 872.173 768.92 886.827 758.787C889.08 757.173 891.427 755 891.373 751.987C891.813 746.947 885.92 743.24 881.44 745.107C878.64 746.16 876.213 747.947 873.827 749.693C858.467 761.147 843.187 772.72 828.027 784.44C817.173 750.773 791.667 720.453 757.44 709.28C769.733 688.6 785.547 669.947 804.453 655.027Z"></path>
<path fill="#FFDC94" d="M775.693 660.76C782.413 650.053 788.973 638.333 800.24 631.773C800.533 633.987 804.187 637.013 801.44 638.72C792.48 645.613 783.8 652.88 775.693 660.76Z"></path>
<path fill="#FFDC94" d="M700.96 634.733C725.813 637.773 751.12 638.093 775.96 634.733C758.693 654.36 752.027 680.24 742.653 704.027C738.84 715.333 731.04 724.56 724.2 734.133C718.053 724.253 711.52 714.56 706.453 704.067C701.507 694.107 699.92 682.933 698.72 672.013C697.907 659.587 697.627 646.84 700.96 634.733Z"></path>
<path fill="#FFDC94" d="M749.453 860.587C761.44 852.693 772.133 842.947 783.547 834.387C822.093 864.213 866.547 887.04 914.32 897.547C939.56 902.933 965.56 905.587 991.307 903.12C996.467 961.427 999.507 1020.17 995.333 1078.65C987.653 1080.23 979.72 1079.53 971.933 1079.89C926.96 1079.97 881.64 1076.32 838.04 1064.83C809.453 1057.31 782.533 1044.61 753.96 1037.07C756.28 1022.07 762.707 1007.03 774.68 997.24C777.627 994.747 781.213 991.067 779.333 986.867C776.907 980.8 773.333 975.293 770.76 969.293C754.587 935.627 747.293 897.867 749.453 860.587ZM815.027 937.427C816.493 948.627 823.653 958.16 831.453 965.907C846.8 980.667 867.36 988.853 888.08 992.493C892.947 993.973 897.867 988.96 896.853 984.147C896.267 980.6 892.88 978.467 889.573 978C869.387 974.453 849.08 965.68 836.16 949.213C829.053 940.693 825.013 930.253 820.413 920.307C816.8 925.213 814.027 931.173 815.027 937.427Z"></path>
</g>
<defs>
<clipPath id="clip0_1_162">
<rect fill="white" height="1365.33" width="1365.33"></rect>
</clipPath>
</defs>
</svg>
